<svg version="1.1" id="katman_1" xmlns="http://www.w3.org/2000/svg" x="0" y="0" viewBox="0 0 1556.3 2194.7" xml:space="preserve"><style>.st7{opacity:5.000000e-02;enable-background:new}</style><path d="M0 0h2500v2500H0V0z" fill="none"/><path d="M1410.4 2024.9l-632.3 170.2-632.3-170.2L0 444.3h1556.3l-145.9 1580.6z" fill="#2062af"/><path d="M778.2 572.3v1487.1l1.4.4 511.7-137.8 118.1-1349.7H778.2z" fill="#3c9cd7"/><path d="M419.3 197v-94.1h137.3V0H316.4v291h240.2v-94H419.3zm384.2-94.1h96V0H659.3v102.9c32.1 32.1 48.9 47.5 95.4 94-27.2 0-95.4.1-95.4.1v94h240.2v-94l-96-94.1zm340.5 0h96V0H999.7v102.9c32.1 32.1 48.9 47.5 95.4 94-27.2 0-95.4.1-95.4.1v94H1240v-94l-96-94.1z"/><path d="M777.6 967.5L325.1 1156l15 186.6 437.5-187.1 465.4-199 19.3-190.9-484.7 201.9z" fill="#fff"/><linearGradient id="SVGID_1_" gradientUnits="userSpaceOnUse" x1="-254.781" y1="-212.578" x2="-254.781" y2="-293.379" gradientTransform="translate(1733.976 2329.32) scale(4.6418)"><stop offset=".387" stop-color="#d1d3d4" stop-opacity="0"/><stop offset="1" stop-color="#d1d3d4"/></linearGradient><path d="M325.1 1156l15 186.6 437.5-187.1v-188L325.1 1156z" fill="url(#SVGID_1_)"/><linearGradient id="SVGID_2_" gradientUnits="userSpaceOnUse" x1="-153.824" y1="-252.879" x2="-153.824" y2="-336.868" gradientTransform="translate(1733.976 2329.32) scale(4.6418)"><stop offset=".387" stop-color="#d1d3d4" stop-opacity="0"/><stop offset="1" stop-color="#d1d3d4"/></linearGradient><path d="M1262.3 765.6L777.6 967.5v188l465.4-199 19.3-190.9z" fill="url(#SVGID_2_)"/><linearGradient id="SVGID_3_" gradientUnits="userSpaceOnUse" x1="-303.376" y1="-176.54" x2="-109.311" y2="-176.54" gradientTransform="translate(1733.976 2329.32) scale(4.6418)"><stop offset="0" stop-color="#e8e7e5"/><stop offset="1" stop-color="#fff"/></linearGradient><path d="M325.8 1156l15 186.6 671.3 2.1-15 248.8-220.9 62.2-212.4-53.6-12.8-154.4H353.6l25.7 298.1 398.9 118L1175 1748l51.5-591.9H325.8z" fill="url(#SVGID_3_)"/><path class="st7" d="M777.6 1156H325.1l15 186.6 437.5 1.4v-188zm0 499.1l-2.1.6-212.3-53.6-12.9-154.4H353l25.7 298.1 398.9 118v-208.7z"/><linearGradient id="SVGID_4_" gradientUnits="userSpaceOnUse" x1="-312.305" y1="-316.307" x2="-101.613" y2="-316.307" gradientTransform="translate(1733.976 2329.32) scale(4.6418)"><stop offset="0" stop-color="#e8e7e5"/><stop offset="1" stop-color="#fff"/></linearGradient><path d="M284.3 765.6h978L1243 956.5H307.9l-23.6-190.9z" fill="url(#SVGID_4_)"/><path class="st7" d="M777.6 765.6H284.3l23.6 190.9h469.7V765.6z"/></svg>