<svg version="1.1" id="Layer_1" xmlns="http://www.w3.org/2000/svg" x="0" y="0" viewBox="0 0 1626.4 1573.5" xml:space="preserve"><style>.st0{fill:#0091e2}</style><path id="SVGID_1_" class="st0" d="M394.1 900.2c-43.6 0-83.3-35.7-83.3-79.3s35.7-79.3 83.3-79.3 83.3 35.7 83.3 79.3c0 43.6-39.7 79.3-83.3 79.3zm1023.4-432.4c-7.9-63.5-47.6-115-99.2-154.7l-19.8-15.9-15.9 19.8c-31.7 35.7-43.6 99.2-39.7 146.8 4 35.7 15.9 71.4 35.7 99.2-15.9 7.9-35.7 15.9-51.6 23.8-35.7 11.9-71.4 15.9-107.1 15.9H92.6l-4 23.8c-7.9 75.4 4 154.7 35.7 226.1l15.9 27.8v4c95.2 158.7 265.8 230.1 452.2 230.1 357 0 650.6-154.7 789.4-487.9 91.2 4 182.5-19.8 226.1-107.1l11.9-19.8-19.8-11.9c-51.6-31.9-123-35.8-182.5-20zm-511.7-63.4H751.1v154.7h154.7V404.4zm0-194.4H751.1v154.7h154.7V210zm0-198.4H751.1v154.7h154.7V11.6zm190.4 392.8H941.5v154.7h154.7V404.4zm-575.2 0H366.3v154.7H521V404.4zm194.4 0H560.7v154.7h154.7V404.4zm-384.8 0H175.9v154.7h154.7V404.4zM715.4 210H560.7v154.7h154.7V210zM521 210H366.3v154.7H521V210z"/><path id="docker_2_" class="st0" d="M1158.3 1437.3c34.7-30.6 69.4-59.2 104.1-89.8 12.2-10.2 24.5-20.4 36.7-32.6-10.2-12.2-24.5-20.4-38.8-26.5-26.5-10.2-53.1-6.1-79.6 8.2-32.6 18.4-46.9 49-44.9 85.7 0 14.3 4.1 28.6 12.2 40.8 6.3 6 8.3 10.1 10.3 14.2m40.9 28.6c16.3 6.1 36.7 6.1 55.1 2 8.2-4.1 32.6-14.3 40.8-12.2h4.1c6.1 2 10.2 6.1 12.2 12.2 6.1 12.2 4.1 24.5-8.2 30.6l-4.1 2c-44.9 26.5-91.8 22.4-136.7-2-20.4-12.2-36.7-28.6-49-49l-2-4.1c-28.6-49-24.5-102 8.2-149 10.2-16.3 26.5-28.6 42.9-38.8l6.1-4.1c42.9-24.5 87.7-22.4 130.6-2 22.4 12.2 42.9 28.6 55.1 51l2 4.1c10.2 16.3-2 30.6-16.3 40.8l-42.9 36.7c-36.7 28.7-67.3 55.2-97.9 81.8zm332.6-224.5h4.1c14.3 0 24.5 10.2 24.5 24.5 0 20.4-18.4 24.5-34.7 24.5-20.4 0-40.8 12.2-55.1 26.5-18.4 18.4-26.5 40.8-26.5 65.3v114.3c0 12.2-8.2 24.5-22.4 24.5h-4.1c-14.3 0-22.4-10.2-22.4-24.5v-120.4c0-46.9 22.4-83.7 59.2-110.2 26.4-16.3 50.8-24.5 77.4-24.5zM948.2 1321l55.1-55.1c6.1-4.1 24.5-26.5 32.6-26.5h8.2c10.2 2 18.4 8.2 18.4 20.4v4.1c0 8.2-10.2 16.3-14.3 22.4-10.2 12.2-22.4 22.4-32.6 34.7l-57.1 57.1 73.5 73.5 20.4 20.4 8.2 8.2c2 4.1 4.1 6.1 4.1 10.2v6.1c-2 10.2-10.2 18.4-20.4 18.4h-4.1c-8.2 0-16.3-8.2-22.4-14.3-10.2-10.2-22.4-20.4-32.6-32.6l-36.7-34.7v57.1c0 12.2-8.2 24.5-22.4 24.5H922c-14.3 0-22.4-10.2-22.4-24.5v-314.2c0-12.2 8.2-22.4 22.4-22.4h4.1c14.3 0 22.4 10.2 22.4 22.4V1321h-.3zm-151-30.6c-6.1-4.1-20.4-4.1-28.6-4.1-38.8-2-67.3 20.4-83.7 55.1-6.1 12.2-8.2 24.5-8.2 38.8 0 40.8 20.4 69.4 57.1 85.7 12.2 6.1 30.6 8.2 44.9 8.2 12.2 0 30.6-8.2 40.8-12.2h10.2c10.2 2 18.4 8.2 18.4 20.4v4.1c0 28.6-53.1 34.7-71.4 36.7-69.4 4.1-122.4-34.7-142.8-100-4.1-12.2-4.1-22.4-4.1-34.7v-10.2c0-51 24.5-91.8 69.4-116.3 20.4-12.2 42.9-18.4 67.3-18.4h10.2c24.5 0 49 6.1 69.4 20.4l2 2 2 2c2 4.1 4.1 8.2 4.1 12.2v4.1c0 12.2-8.2 18.4-20.4 20.4h-2c-14.2-4-30.6-12.2-34.6-14.2zm-428.6 87.7c0 34.7 18.4 61.2 46.9 79.6 14.3 8.2 30.6 12.2 46.9 12.2 34.7 0 61.2-18.4 79.6-46.9 8.2-14.3 12.2-30.6 12.2-46.9 0-32.6-16.3-59.2-42.9-77.5-14.3-10.2-32.6-14.3-49-14.3-38.8 0-67.3 20.4-83.7 55.1-10 14.2-10 26.5-10 38.7zm85.7-138.7h6.1c55.1 0 95.9 26.5 122.4 73.5 10.2 18.4 16.3 38.8 16.3 61.2v10.2c0 51-24.5 91.8-69.4 116.3-20.4 12.2-42.9 18.4-67.3 18.4h-10.2c-51 0-91.8-24.5-116.3-69.4-12.2-20.4-18.4-42.9-18.4-67.3V1372c0-51 24.5-91.8 69.4-116.3 22.6-10.2 43-16.3 67.4-16.3zM58.5 1378.1c0 36.7 18.4 65.3 51 81.6 12.2 6.1 26.5 10.2 42.9 10.2 36.7 0 63.3-16.3 81.6-46.9 8.2-14.3 12.2-30.6 12.2-46.9 0-32.6-14.3-57.1-40.8-75.5-16.3-10.2-32.6-16.3-53.1-16.3-38.8 0-67.3 20.4-83.7 55.1-6 14.2-10.1 26.5-10.1 38.7zm187.7-104v-100c0-12.2 8.2-24.5 22.4-24.5h4.1c14.3 0 22.4 10.2 22.4 24.5v210.2c0 51-24.5 91.8-69.4 116.3-20.4 12.2-42.9 18.4-67.3 18.4h-10.2c-51 0-91.8-24.5-116.3-69.4-12.2-20.4-18.4-42.9-18.4-67.3V1372c0-51 24.5-91.8 69.4-116.3 20.4-12.2 42.9-18.4 67.3-18.4h10.2c30.7 2.1 61.3 14.3 85.8 36.8z"/></svg>