<svg xmlns="http://www.w3.org/2000/svg" viewBox="0 0 755 199"><path d="M353.7 38.8h-31.4l.1 58.7c0 17.2-7.4 31-24.5 31s-24.6-13.8-24.6-31V38.9H242v58.7c0 33.9 21.8 61.4 55.7 61.4s56-27.5 56-61.4V38.8zm283-35.7h31.2v152.8h-31.2V3.1zM691 8.7V3.2h24.3v5.5h-8.9v24.2h-6.5V8.7H691zm36.9-5.5l7 20.4h.1l6.6-20.4h9.2v29.7h-6.1v-21h-.1l-7.3 21h-5L725 12.1h-.1v20.8h-6.1V3.2h9.1zM216.5 37.6c-26.9-6.2-43.9 20.5-44.6 22-.4.7-.4 1.1-1.6 1.1-1 0-1.1-1.1-1.1-1.1l-3.3-20.5h-28v116.7h31.4V92.6c0-5.2 13.9-29.9 40.9-23.6 13.6 3.2 19.4 9 19.4 9V42.5c-4.2-2.2-8.6-3.9-13.1-4.9zm179.8 156.7v-57.7s.1-1.3 1.2-1.3 1.2.7 1.5 1.3c2.4 5.9 15.5 28.5 44.5 21.4 32.8-9.3 51.9-43.4 42.6-76.3-9.3-32.8-43.4-51.9-76.3-42.6-26.6 7.5-45 31.8-45 59.4v95.9l31.5-.1zm30.4-127.2c17.3 0 31.3 14 31.3 31.3s-14 31.3-31.3 31.3-31.3-14-31.3-31.3c0-17.2 14-31.3 31.3-31.3zm165.9 88.8H624V98.4c0-34.1-27.7-61.8-61.8-61.7s-61.8 27.7-61.7 61.8c0 27.6 18.4 51.9 45 59.4 29 7.1 42.1-15.5 44.5-21.4.2-.6.5-1.3 1.5-1.3s1.2 1.3 1.2 1.3m.7-38.1c0 17.3-14 31.3-31.3 31.3s-31.3-14-31.3-31.3 14-31.3 31.3-31.3c17.3.1 31.3 14.1 31.3 31.3zM39.7 155.6H4V3h38.3c46.3 0 81.5 8.5 81.5 76.3 0 67.2-37.3 76.3-84.1 76.3zm8.5-126.1H35.6v99.7l12.9.3c26.6 0 43.7-2.4 43.7-50.2 0-45.8-15.1-49.8-44-49.8z" fill="#2aa9e0"/></svg>