<svg version="1.1" id="katman_1" xmlns="http://www.w3.org/2000/svg" x="0" y="0" viewBox="0 0 1791.9 1222.9" xml:space="preserve"><style>.st0{fill:#5d87a1}.st1{fill:#f8981d}</style><path class="st0" d="M432.2 1096.5h-67.7c-2.4-114.2-9-221.6-19.8-322.3h-.6l-103 322.3h-51.5L87.2 774.2h-.6c-7.6 96.6-12.4 204.1-14.4 322.3H10.5c4-143.8 14-278.6 29.9-404.4h83.9L222 989.3h.6l98.2-297.1h80.3c17.5 147.3 27.9 282.1 31.1 404.3m293.6-298.3c-27.6 149.5-63.9 258.2-109 326-35.2 52.2-73.7 78.3-115.6 78.3-11.2 0-25-3.4-41.3-10.1v-36.1c8 1.2 17.4 1.8 28.1 1.8 19.6 0 35.3-5.4 47.3-16.2 14.4-13.2 21.5-27.9 21.5-44.3 0-11.2-5.6-34.2-16.8-68.9L465.7 798h66.5l53.3 172.5c12 39.2 17 66.5 15 82.1 29.2-77.9 49.5-162.8 61.1-254.6l64.2.2z"/><path class="st1" d="M1626.7 1096.5h-192.3V692.2h64.7v354.6h127.6v49.7zm-242.6 9.8l-74.3-36.7c6.6-5.4 12.9-11.3 18.6-18.1 31.6-37.1 47.4-92 47.4-164.7 0-133.8-52.5-200.7-157.5-200.7-51.5 0-91.7 17-120.4 50.9-31.6 37.1-47.3 91.8-47.3 164.2 0 71.1 14 123.2 41.9 156.3 25.6 30 64.1 45 115.7 45 19.2 0 36.9-2.4 52.9-7.1l96.8 56.3 26.2-45.4zm-240.8-90.7c-16.4-26.3-24.6-68.6-24.6-127 0-101.8 30.9-152.8 92.9-152.8 32.4 0 56.1 12.2 71.3 36.5 16.3 26.4 24.6 68.3 24.6 125.8 0 102.7-31 154-92.8 154-32.5.1-56.2-12.1-71.4-36.5m-121.1-31.2c0 34.3-12.6 62.4-37.7 84.5-25.2 21.9-58.9 32.9-101.2 32.9-39.5 0-77.9-12.6-115-37.8l17.4-34.7c31.9 16 60.9 23.9 86.8 23.9 24.4 0 43.4-5.4 57.2-16.1 13.8-10.8 22-25.8 22-44.9 0-24-16.8-44.6-47.5-61.8-28.3-15.6-85-48.1-85-48.1-30.7-22.4-46.1-46.4-46.1-86 0-32.8 11.5-59.2 34.4-79.4 23-20.2 52.6-30.3 89-30.3 37.5 0 71.7 10.1 102.4 30l-15.6 34.7c-26.3-11.2-52.2-16.8-77.8-16.8-20.7 0-36.7 5-47.9 15-11.2 10-18.1 22.7-18.1 38.4 0 23.9 17.1 44.7 48.7 62.2C916.9 865.9 975 899 975 899c31.5 22.3 47.2 46.2 47.2 85.4"/><path class="st0" d="M1707.9 556.7c-39.1-1-69.4 2.9-94.8 13.7-7.3 2.9-19 2.9-20 12.2 4 3.9 4.4 10.3 7.9 15.7 5.9 9.8 16.1 22.9 25.4 29.8 10.2 7.8 20.5 15.6 31.3 22.5 19 11.8 40.5 18.6 59.1 30.3 10.8 6.8 21.5 15.6 32.3 23 5.3 3.9 8.7 10.3 15.6 12.7V715c-3.5-4.4-4.4-10.8-7.8-15.6l-14.7-14.2c-14.2-19-31.8-35.7-50.8-49.3-15.6-10.8-49.9-25.4-56.2-43.4l-1-1c10.8-1 23.5-4.9 33.7-7.9 16.6-4.4 31.8-3.4 48.8-7.8 7.8-2 15.6-4.4 23.5-6.8v-4.4c-8.8-8.8-15.1-20.5-24.4-28.8-24.9-21.5-52.3-42.5-80.6-60.1-15.2-9.8-34.7-16.1-50.8-24.4-5.8-2.9-15.6-4.4-19.1-9.3-8.8-10.8-13.7-24.9-20-37.6-14.1-26.9-27.8-56.6-40-85-8.8-19-14.2-38.1-24.9-55.7-50.4-83-105-133.4-189.1-182.7-18.1-10.3-39.5-14.7-62.5-20l-36.7-1.9c-7.8-3.4-15.7-12.7-22.5-17.1-27.9-17.6-99.7-55.7-120.2-5.4-13.2 31.8 19.5 63.1 30.8 79.2 8.3 11.2 19.1 23.9 24.9 36.6 3.4 8.3 4.4 17.1 7.8 25.9 7.8 21.5 15.1 45.4 25.4 65.5 5.4 10.2 11.2 21 18.1 30.2 3.9 5.4 10.8 7.8 12.2 16.6-6.8 9.7-7.4 24.4-11.3 36.6-17.6 55.2-10.7 123.6 14.2 164.2 7.8 12.2 26.4 39.1 51.3 28.8 22-8.8 17.1-36.6 23.5-61.1 1.5-5.9.5-9.8 3.4-13.6v1c6.8 13.7 13.7 26.8 20 40.5 15.2 23.9 41.6 48.8 63.5 65.4 11.7 8.8 21 24 35.6 29.4v-1.5h-1c-3-4.4-7.3-6.3-11.2-9.7-8.8-8.8-18.6-19.6-25.4-29.3-20.5-27.4-38.6-57.7-54.7-88.9-7.9-15.2-14.7-31.8-21-46.9-3-5.8-3-14.7-7.9-17.6-7.4 10.7-18.1 20-23.4 33.2-9.3 21-10.3 46.9-13.7 73.8l-1.9.9c-15.6-3.9-21-20-26.9-33.7-14.6-34.7-17.1-90.4-4.4-130.5 3.4-10.2 18.1-42.5 12.2-52.2-2.9-9.4-12.7-14.7-18.1-22-6.3-9.3-13.2-21-17.6-31.3-11.7-27.3-17.6-57.7-30.2-85-5.9-12.7-16.1-25.9-24.4-37.7-9.3-13.2-19.6-22.5-26.9-38.1-2.4-5.4-5.8-14.2-1.9-20 1-3.9 2.9-5.4 6.8-6.4 6.3-5.3 24.4 1.5 30.8 4.4 18.1 7.3 33.3 14.2 48.4 24.4 6.8 4.9 14.2 14.2 23 16.6h10.3c15.6 3.4 33.2.9 47.9 5.4 25.9 8.3 49.3 20.5 70.4 33.7 64 40.6 116.8 98.2 152.4 167.1 5.8 11.2 8.3 21.5 13.7 33.2 10.3 24 23 48.4 33.2 71.8 10.3 23 20 46.4 34.7 65.5 7.3 10.3 36.7 15.6 49.9 21 9.7 4.4 24.9 8.3 33.7 13.7 16.6 10.2 33.2 22 48.8 33.3 7.6 5.7 32 17.9 33.5 27.7m-498.4-424.6c-6.7-.1-13.5.8-20 2.5v1h.9c3.9 7.8 10.8 13.2 15.7 20 3.9 7.8 7.4 15.6 11.2 23.4l.9-1c6.9-4.9 10.3-12.7 10.3-24.4-3-3.5-3.4-6.8-5.9-10.3-2.8-4.8-9.2-7.3-13.1-11.2"/><path class="st1" d="M1754.4 1096.5h10.1V1047h-15.2l-12.4 33.8-13.5-33.8h-14.6v49.5h9.6v-37.7h.5l14.1 37.7h7.3l14-37.7.1 37.7zm-81.5 0h10.7v-41.1h14v-8.4h-39.3v8.4h14.6v41.1z"/></svg>