<?xml version="1.0" encoding="utf-8"?>
<!-- Generator: Adobe Illustrator 22.0.1, SVG Export Plug-In . SVG Version: 6.00 Build 0)  -->
<svg version="1.1" id="Layer_1" xmlns="http://www.w3.org/2000/svg" xmlns:xlink="http://www.w3.org/1999/xlink" x="0px" y="0px"
	 viewBox="0 0 1626.4 1573.5" style="enable-background:new 0 0 1626.4 1573.5;" xml:space="preserve">
<style type="text/css">
	.st0{fill:#0091E2;}
</style>
<path id="SVGID_1_" class="st0" d="M394.1,900.2c-43.6,0-83.3-35.7-83.3-79.3s35.7-79.3,83.3-79.3s83.3,35.7,83.3,79.3
	C477.4,864.5,437.7,900.2,394.1,900.2L394.1,900.2z M1417.5,467.8c-7.9-63.5-47.6-115-99.2-154.7l-19.8-15.9l-15.9,19.8
	c-31.7,35.7-43.6,99.2-39.7,146.8c4,35.7,15.9,71.4,35.7,99.2c-15.9,7.9-35.7,15.9-51.6,23.8c-35.7,11.9-71.4,15.9-107.1,15.9H92.6
	l-4,23.8c-7.9,75.4,4,154.7,35.7,226.1l15.9,27.8v4c95.2,158.7,265.8,230.1,452.2,230.1c357,0,650.6-154.7,789.4-487.9
	c91.2,4,182.5-19.8,226.1-107.1l11.9-19.8l-19.8-11.9C1548.4,455.9,1477,452,1417.5,467.8L1417.5,467.8z M905.8,404.4H751.1v154.7
	h154.7V404.4z M905.8,210H751.1v154.7h154.7V210z M905.8,11.6H751.1v154.7h154.7C905.8,166.4,905.8,11.6,905.8,11.6z M1096.2,404.4
	H941.5v154.7h154.7V404.4z M521,404.4H366.3v154.7H521V404.4L521,404.4z M715.4,404.4H560.7v154.7h154.7V404.4z M330.6,404.4H175.9
	v154.7h154.7L330.6,404.4L330.6,404.4z M715.4,210H560.7v154.7h154.7V210z M521,210H366.3v154.7H521V210L521,210z"/>
<path id="docker_2_" class="st0" d="M1158.3,1437.3c34.7-30.6,69.4-59.2,104.1-89.8c12.2-10.2,24.5-20.4,36.7-32.6
	c-10.2-12.2-24.5-20.4-38.8-26.5c-26.5-10.2-53.1-6.1-79.6,8.2c-32.6,18.4-46.9,49-44.9,85.7c0,14.3,4.1,28.6,12.2,40.8
	C1154.3,1429.1,1156.3,1433.2,1158.3,1437.3 M1199.2,1465.9c16.3,6.1,36.7,6.1,55.1,2c8.2-4.1,32.6-14.3,40.8-12.2h4.1
	c6.1,2,10.2,6.1,12.2,12.2c6.1,12.2,4.1,24.5-8.2,30.6l-4.1,2c-44.9,26.5-91.8,22.4-136.7-2c-20.4-12.2-36.7-28.6-49-49l-2-4.1
	c-28.6-49-24.5-102,8.2-149c10.2-16.3,26.5-28.6,42.9-38.8l6.1-4.1c42.9-24.5,87.7-22.4,130.6-2c22.4,12.2,42.9,28.6,55.1,51l2,4.1
	c10.2,16.3-2,30.6-16.3,40.8l-42.9,36.7C1260.4,1412.8,1229.8,1439.3,1199.2,1465.9L1199.2,1465.9z M1531.8,1241.4h4.1
	c14.3,0,24.5,10.2,24.5,24.5c0,20.4-18.4,24.5-34.7,24.5c-20.4,0-40.8,12.2-55.1,26.5c-18.4,18.4-26.5,40.8-26.5,65.3v114.3
	c0,12.2-8.2,24.5-22.4,24.5h-4.1c-14.3,0-22.4-10.2-22.4-24.5v-120.4c0-46.9,22.4-83.7,59.2-110.2
	C1480.8,1249.6,1505.2,1241.4,1531.8,1241.4L1531.8,1241.4z M948.2,1321l55.1-55.1c6.1-4.1,24.5-26.5,32.6-26.5h8.2
	c10.2,2,18.4,8.2,18.4,20.4v4.1c0,8.2-10.2,16.3-14.3,22.4c-10.2,12.2-22.4,22.4-32.6,34.7l-57.1,57.1l73.5,73.5l20.4,20.4l8.2,8.2
	c2,4.1,4.1,6.1,4.1,10.2v6.1c-2,10.2-10.2,18.4-20.4,18.4h-4.1c-8.2,0-16.3-8.2-22.4-14.3c-10.2-10.2-22.4-20.4-32.6-32.6
	l-36.7-34.7v57.1c0,12.2-8.2,24.5-22.4,24.5H922c-14.3,0-22.4-10.2-22.4-24.5v-314.2c0-12.2,8.2-22.4,22.4-22.4h4.1
	c14.3,0,22.4,10.2,22.4,22.4V1321H948.2z M797.2,1290.4c-6.1-4.1-20.4-4.1-28.6-4.1c-38.8-2-67.3,20.4-83.7,55.1
	c-6.1,12.2-8.2,24.5-8.2,38.8c0,40.8,20.4,69.4,57.1,85.7c12.2,6.1,30.6,8.2,44.9,8.2c12.2,0,30.6-8.2,40.8-12.2h10.2
	c10.2,2,18.4,8.2,18.4,20.4v4.1c0,28.6-53.1,34.7-71.4,36.7c-69.4,4.1-122.4-34.7-142.8-100c-4.1-12.2-4.1-22.4-4.1-34.7v-10.2
	c0-51,24.5-91.8,69.4-116.3c20.4-12.2,42.9-18.4,67.3-18.4h10.2c24.5,0,49,6.1,69.4,20.4l2,2l2,2c2,4.1,4.1,8.2,4.1,12.2v4.1
	c0,12.2-8.2,18.4-20.4,20.4h-2C817.6,1300.6,801.2,1292.4,797.2,1290.4L797.2,1290.4z M368.6,1378.1c0,34.7,18.4,61.2,46.9,79.6
	c14.3,8.2,30.6,12.2,46.9,12.2c34.7,0,61.2-18.4,79.6-46.9c8.2-14.3,12.2-30.6,12.2-46.9c0-32.6-16.3-59.2-42.9-77.5
	c-14.3-10.2-32.6-14.3-49-14.3c-38.8,0-67.3,20.4-83.7,55.1C368.6,1353.6,368.6,1365.9,368.6,1378.1L368.6,1378.1z M454.3,1239.4
	h6.1c55.1,0,95.9,26.5,122.4,73.5c10.2,18.4,16.3,38.8,16.3,61.2v10.2c0,51-24.5,91.8-69.4,116.3c-20.4,12.2-42.9,18.4-67.3,18.4
	h-10.2c-51,0-91.8-24.5-116.3-69.4c-12.2-20.4-18.4-42.9-18.4-67.3V1372c0-51,24.5-91.8,69.4-116.3
	C409.5,1245.5,429.9,1239.4,454.3,1239.4L454.3,1239.4z M58.5,1378.1c0,36.7,18.4,65.3,51,81.6c12.2,6.1,26.5,10.2,42.9,10.2
	c36.7,0,63.3-16.3,81.6-46.9c8.2-14.3,12.2-30.6,12.2-46.9c0-32.6-14.3-57.1-40.8-75.5c-16.3-10.2-32.6-16.3-53.1-16.3
	c-38.8,0-67.3,20.4-83.7,55.1C62.6,1353.6,58.5,1365.9,58.5,1378.1L58.5,1378.1z M246.2,1274.1v-100c0-12.2,8.2-24.5,22.4-24.5h4.1
	c14.3,0,22.4,10.2,22.4,24.5v210.2c0,51-24.5,91.8-69.4,116.3c-20.4,12.2-42.9,18.4-67.3,18.4h-10.2c-51,0-91.8-24.5-116.3-69.4
	c-12.2-20.4-18.4-42.9-18.4-67.3V1372c0-51,24.5-91.8,69.4-116.3c20.4-12.2,42.9-18.4,67.3-18.4h10.2
	C191.1,1239.4,221.7,1251.6,246.2,1274.1L246.2,1274.1z"/>
</svg>
