<?xml version="1.0" encoding="utf-8"?>
<!-- Generator: Adobe Illustrator 22.0.1, SVG Export Plug-In . SVG Version: 6.00 Build 0)  -->
<svg version="1.1" id="katman_1" xmlns="http://www.w3.org/2000/svg" xmlns:xlink="http://www.w3.org/1999/xlink" x="0px" y="0px"
	 viewBox="0 0 755 199" style="enable-background:new 0 0 755 199;" xml:space="preserve">
<style type="text/css">
	.st0{fill:#2AA9E0;}
</style>
<g>
	<path class="st0" d="M353.7,38.8h-31.4l0.1,58.7c0,17.2-7.4,31-24.5,31s-24.6-13.8-24.6-31V38.9H242v58.7
		c0,33.9,21.8,61.4,55.7,61.4s56-27.5,56-61.4V38.8z M636.7,3.1h31.2v152.8h-31.2V3.1z M691,8.7V3.2h24.3v5.5h-8.9v24.2h-6.5V8.7
		H691z M727.9,3.2l7,20.4h0.1l6.6-20.4h9.2v29.7h-6.1v-21h-0.1l-7.3,21h-5l-7.3-20.8h-0.1v20.8h-6.1V3.2H727.9z M216.5,37.6
		c-26.9-6.2-43.9,20.5-44.6,22c-0.4,0.7-0.4,1.1-1.6,1.1c-1,0-1.1-1.1-1.1-1.1l-3.3-20.5h-28v116.7h31.4V92.6
		c0-5.2,13.9-29.9,40.9-23.6c13.6,3.2,19.4,9,19.4,9V42.5C225.4,40.3,221,38.6,216.5,37.6L216.5,37.6z M396.3,194.3v-57.7
		c0,0,0.1-1.3,1.2-1.3s1.2,0.7,1.5,1.3c2.4,5.9,15.5,28.5,44.5,21.4c32.8-9.3,51.9-43.4,42.6-76.3c-9.3-32.8-43.4-51.9-76.3-42.6
		c-26.6,7.5-45,31.8-45,59.4v95.9L396.3,194.3z M426.7,67.1c17.3,0,31.3,14,31.3,31.3s-14,31.3-31.3,31.3c-17.3,0-31.3-14-31.3-31.3
		c0,0,0,0,0,0C395.4,81.2,409.4,67.1,426.7,67.1z"/>
	<path class="st0" d="M592.6,155.9H624V98.4c0-34.1-27.7-61.8-61.8-61.7s-61.8,27.7-61.7,61.8c0,27.6,18.4,51.9,45,59.4
		c29,7.1,42.1-15.5,44.5-21.4c0.2-0.6,0.5-1.3,1.5-1.3s1.2,1.3,1.2,1.3 M593.4,98.4c0,17.3-14,31.3-31.3,31.3s-31.3-14-31.3-31.3
		c0-17.3,14-31.3,31.3-31.3l0,0C579.4,67.2,593.4,81.2,593.4,98.4z M39.7,155.6H4V3h38.3c46.3,0,81.5,8.5,81.5,76.3
		C123.8,146.5,86.5,155.6,39.7,155.6L39.7,155.6z M48.2,29.5H35.6v99.7l12.9,0.3c26.6,0,43.7-2.4,43.7-50.2
		C92.2,33.5,77.1,29.5,48.2,29.5L48.2,29.5z"/>
</g>
</svg>
